<svg width="56" height="47" viewBox="0 0 56 47" fill="none" xmlns="http://www.w3.org/2000/svg">
<path class="iconimg" d="M38.2697 31.4424C36.7855 31.3182 34.6871 31.1281 32.5887 30.9818C30.6732 30.8429 29.6788 31.7641 29.3425 33.6651C28.1142 40.5305 22.1846 45.4803 15.4727 45.3268C8.48303 45.166 3.10184 40.26 2.09287 33.1387C0.81337 24.0799 9.79909 16.1616 18.9968 18.2527C21.8702 18.9034 22.5502 18.6256 23.5884 15.818C24.9629 12.1038 26.1401 8.31647 29.3571 5.66243C34.0437 1.7947 39.3372 0.61756 45.0766 2.56971C50.6187 4.45605 53.9088 8.45539 54.8154 14.3045C56.168 23.1367 48.4106 31.479 38.2697 31.4424Z" stroke="white" stroke-width="2" stroke-miterlimit="10"/>
</svg>
