<svg width="52" height="53" viewBox="0 0 52 53" fill="none" xmlns="http://www.w3.org/2000/svg">
<path class="iconimg" d="M1.77735 36.1143C1.90165 32.0565 4.0512 28.0498 8.20408 25.2203C10.8801 23.3998 12.123 21.0089 12.0572 17.8065C11.9768 14.1728 11.7136 10.5098 13.8631 7.22694C17.6724 1.39244 24.4135 -0.0990919 30.8914 3.84176C35.8119 6.83212 40.4912 10.21 45.3314 13.3393C49.8937 16.2858 51.5534 21.0674 50.5956 26.4267C49.6232 31.8737 46.3696 35.873 40.9592 36.999C34.9784 38.2419 30.5624 40.9106 27.1114 46.0797C23.7335 51.1246 16.912 52.6746 11.2749 50.6494C5.48424 48.5656 1.77004 43.2795 1.77735 36.1143Z" stroke="white" stroke-width="2" stroke-miterlimit="10"/>
</svg>
