<svg width="61" height="48" viewBox="0 0 61 48" fill="none" xmlns="http://www.w3.org/2000/svg">
<path class="iconimg" d="M30.1757 7.3113C32.6908 7.48677 35.4326 6.90917 38.0135 4.80348C42.3419 1.26476 47.3502 0.687164 52.417 3.12186C57.3668 5.50538 59.8308 9.65826 59.7942 15.1491C59.7357 23.0601 52.0003 29.7719 44.2355 27.9953C38.2767 26.6353 34.6137 29.3698 31.0238 33.1498C29.9344 34.2977 29.2472 35.6795 28.728 37.1638C26.5127 43.5028 20.8829 47.2608 14.3392 46.7929C8.21955 46.3542 3.03576 41.6457 1.9098 35.5041C0.754599 29.209 3.90582 23.0601 9.93773 20.3475C13.2352 18.8633 15.1508 16.1142 17.2199 13.4456C20.9268 8.67122 23.6978 7.28936 30.1757 7.3113Z" stroke="white" stroke-width="2" stroke-miterlimit="10"/>
</svg>
