<svg width="62" height="45" viewBox="0 0 62 45" fill="none" xmlns="http://www.w3.org/2000/svg">
<path class="iconimg" d="M1.51475 30.02C1.48551 27.5488 2.04848 25.1945 3.37185 23.1181C6.01858 18.9579 6.88132 14.1031 8.75304 9.64315C10.6248 5.19051 13.7467 2.22207 18.6819 1.71759C23.9754 1.17654 27.8285 3.58931 30.4825 8.08582C30.9797 8.92663 31.4842 9.76745 32.0252 10.579C33.4875 12.7797 34.7158 13.0283 36.8069 11.3979C38.9638 9.71627 41.1206 8.10044 43.877 7.48629C50.0552 6.10443 56.2479 9.05093 58.9751 14.7392C61.5633 20.135 60.0133 26.8615 55.334 30.5318C50.2745 34.4946 43.3799 34.4946 38.4739 30.5318C36.7119 29.1061 35.0375 27.6 33.6849 25.7575C32.6321 24.3171 31.3234 24.4414 30.7969 26.1742C29.9415 29.0111 29.5101 31.9795 28.545 34.7725C26.3589 41.1188 19.5885 44.9353 13.0083 43.7582C6.25985 42.5445 1.51475 36.8781 1.51475 30.02Z" stroke="white" stroke-width="2" stroke-miterlimit="10"/>
</svg>
