<svg width="65" height="41" viewBox="0 0 65 41" fill="none" xmlns="http://www.w3.org/2000/svg">
<path class="iconimg" d="M63.7292 15.188C63.7292 21.0372 59.825 26.2429 54.1732 27.9318C48.2218 29.7158 42.0729 27.4639 38.6365 22.2582C37.9127 21.1615 37.1815 20.0501 36.3627 19.0192C35.573 18.0249 34.7103 18.1638 34.0157 19.1728C31.9904 22.1046 30.8352 25.4606 29.4314 28.6849C26.9163 34.4609 23.1217 38.643 16.4537 39.0305C6.03495 39.6301 -1.08636 29.6135 2.97147 19.9916C5.25262 14.5885 8.10407 9.43397 12.9662 5.82214C19.4441 1.01123 26.2802 2.16643 31.5883 8.83444C32.1367 9.52171 32.7508 10.1505 33.3504 10.8012C34.5567 12.1246 35.6973 11.8906 36.6844 10.5672C39.024 7.41602 41.1589 4.14783 45.0998 2.60512C54.0416 -0.897045 63.7219 5.58086 63.7292 15.188Z" stroke="white" stroke-width="2" stroke-miterlimit="10"/>
</svg>
