<?xml version="1.0" encoding="utf-8"?>
<!-- Generator: Adobe Illustrator 24.1.2, SVG Export Plug-In . SVG Version: 6.00 Build 0)  -->
<svg version="1.1" id="Ebene_1" xmlns="http://www.w3.org/2000/svg" xmlns:xlink="http://www.w3.org/1999/xlink" x="0px" y="0px"
	 viewBox="0 0 187.6 61.4" style="enable-background:new 0 0 187.6 61.4;" xml:space="preserve">
<style type="text/css">
	.st0{fill:#FFF;}
</style>
<path class="st0" d="M178.9,5.3L178.9,5.3C178.8,5.4,178.8,5.4,178.9,5.3L178.9,5.3c-0.5-0.4-0.9-0.7-1.5-1c0,0,0,0-0.1,0
	c0,0,0,0,0,0c-3.9-2.4-9.1-3.6-15.5-3.7l-0.1,7.8c5,0.1,9,1,11.6,2.7c3.3,2.2,4.9,5,3.6,7.7c-1.6,3.3-6.5,3.4-12.8,1.8
	c-9-2.3-16.5-0.9-20.4,3.9c-2.9,3.5-3.4,8.5-1.3,12.9c3.7,7.9,12.9,10.7,20.4,10.7l0,0c0.1,0,0.3,0,0.4,0c7.6,0,13-3,16.6-6.1V47
	h7.8V25.9C188,18.8,185.7,10.6,178.9,5.3z M178.3,31.4L178.3,31.4c-0.2,0.4-4.7,8.8-15.4,8.7l0,0c-7.7,0-12-3.2-13.4-6.2
	c-0.8-1.7-0.7-3.4,0.3-4.6c1.9-2.3,6.6-2.8,12.4-1.3c2.8,0.7,5.4,1,7.9,0.9c2.3,0,4.1-0.4,5.8-1.1c1.5-0.6,2.8-1.3,3.8-2.1
	C179.6,28,179,30,178.3,31.4z M147.3,8.5c1.5-0.2,4.1-0.3,6.9-0.3l0-7.8c-2.9,0-2.4,0-3.7,0c-6.9,0-13,2.6-16.3,9.9v-9h-8.5V47h8.5
	V25.2C134.2,16,137.8,9.5,147.3,8.5L147.3,8.5z M116.7,1.3h-8.5v32.6h8.5V1.3z M26.3,0.5c-8.7,0-14.1,3.4-17.7,9.5V1.4H0v60h8.5v-23
	c3.6,6.1,9,9.5,17.6,9.5c16.4,0,23.6-12.1,23.6-23.9C49.7,12.1,42.4,0.5,26.3,0.5z M24.9,40.2c-10,0-16.4-6.8-16.4-16.1
	c0-9.2,6.2-15.9,16.4-15.9c10.1,0,16.3,6.6,16.3,15.9S34.8,40.2,24.9,40.2z M80.4,40.1c-4,0-7.7-0.7-10.6-2.2
	c-3.8-2.2-5.5-5.6-4.4-8.4c1.7-4.1,6.4-3.4,12.7-2l0,0l0,0c2.9,0.7,5.6,1,8,0.9c5.4-0.1,9.7-1.9,12.3-5.2c2.8-3.6,3.2-8.6,1-13
	C95.7,2.5,86.4-0.2,78.9,0l0,0h0c0,0,0,0-0.1,0l0,0C63.5,0.2,57.3,12.4,56.8,13.4C53,21,53.2,35.5,63.4,43c0.8,0.5,1.6,1.1,2.7,1.7
	c0,0,0,0,0,0l0,0c3.3,1.7,8,3.3,14.5,3.2c0.2,0,0.3,0,0.4,0c11.9-0.3,18.3-7.5,20.5-10.6l-6.4-4.5C93.5,34.9,89,40,80.4,40.1z
	 M62.4,22.5c0.2-2.3,0.7-4.3,1.4-5.7l0,0c0.2-0.4,4.5-8.9,15.2-9l0,0c7.7-0.2,12,2.9,13.5,5.9c0.9,1.7,0.8,3.4-0.2,4.6
	c-1.8,2.4-6.5,2.9-12.4,1.6h0c-5.3-1.2-10.1-1-13.6,0.3C64.9,20.8,63.6,21.6,62.4,22.5z M112.5,37.8c-2.7,0-4.9,2.2-4.9,4.9
	s2.2,4.9,4.9,4.9s4.9-2.2,4.9-4.9C117.4,40,115.2,37.8,112.5,37.8z"/>
</svg>
