<svg width="1920" height="665" viewBox="0 0 1920 665" fill="none" xmlns="http://www.w3.org/2000/svg">
<path d="M82.713 52.9628C274.315 -18.9633 467.932 -23.4898 649.011 75.8834C870.402 197.407 1076.01 156.085 1287.55 93.1754C1561.95 11.5369 1809.72 68.4062 2001.25 310.389C2198.03 559.343 2185.4 824.079 2052.95 1084.53C1965.48 1256.85 1955.06 1426.4 2056.54 1611.86C2198.22 1870.54 2138.71 2217.71 1931.34 2421.8C1723.22 2627.04 1393.67 2666.96 1141.97 2519.85C919.344 2390.23 794.162 2195.49 749.726 1941.67C695.658 1632.83 638.13 1576.17 340.642 1525.23C-11.1598 1464.84 -271.645 1222.5 -340.841 890.344C-410.39 558.326 -277.289 252.165 9.1579 86.5436C34.0674 72.626 61.3312 62.5151 82.713 52.9628Z" fill="#6FD7B6"/>
</svg>
