<?xml version="1.0" encoding="utf-8"?>
<!-- Generator: Adobe Illustrator 24.1.2, SVG Export Plug-In . SVG Version: 6.00 Build 0)  -->
<svg version="1.1" id="Ebene_1" xmlns="http://www.w3.org/2000/svg" xmlns:xlink="http://www.w3.org/1999/xlink" x="0px" y="0px"
	 viewBox="0 0 62 45" style="enable-background:new 0 0 62 45;" xml:space="preserve">
<style type="text/css">
	.st0{fill:#FF3901;stroke:#FF3901;stroke-width:2;stroke-miterlimit:10;}
</style>
<path class="st0" d="M1.5,30c0-2.5,0.5-4.8,1.9-6.9C6,19,6.9,14.1,8.8,9.6c1.9-4.5,5-7.4,9.9-7.9c5.3-0.5,9.1,1.9,11.8,6.4
	c0.5,0.8,1,1.7,1.5,2.5c1.5,2.2,2.7,2.4,4.8,0.8c2.2-1.7,4.3-3.3,7.1-3.9c6.2-1.4,12.4,1.6,15.1,7.3c2.6,5.4,1,12.1-3.6,15.8
	c-5.1,4-12,4-16.9,0c-1.8-1.4-3.4-2.9-4.8-4.8c-1.1-1.4-2.4-1.3-2.9,0.4c-0.9,2.8-1.3,5.8-2.3,8.6c-2.2,6.3-9,10.2-15.5,9
	C6.3,42.5,1.5,36.9,1.5,30z"/>
</svg>
