<svg xmlns="http://www.w3.org/2000/svg" width="39" height="29" viewBox="0 0 39 29" fill="none">
<path d="M2.69388 29C1.38775 29 1.68367 27.5 2.69388 26.6395C3.70408 25.7791 8.22961 23.9685 10.102 20.7946C11.3474 18.6836 12.1173 17.2221 11.898 14.781C11.8132 13.8373 11.7109 12.9451 11.3367 12.4205C10.9252 11.896 10.4762 11.6337 9.9898 11.6337C9.61565 11.6337 9.01701 11.7836 8.19388 12.0833C7.37075 12.3831 6.54762 12.5329 5.72449 12.5329C4.15306 12.5329 2.80612 11.9709 1.68367 10.8469C0.561224 9.72287 0 8.3553 0 6.74419C0 4.94574 0.710884 3.37209 2.13265 2.02326C3.59184 0.674419 5.35034 0 7.40816 0C9.87755 0 12.1037 1.06783 14.0867 3.20349C16.1071 5.33915 17.1173 8.03682 17.1173 11.2965C17.1173 15.2306 16.0043 18.5275 13.301 22.0872C10.3107 26.0248 4 29 2.69388 29Z" fill="#FF3901"/>
<path d="M23.6939 29C22.3878 29 22.6837 27.5 23.6939 26.6395C24.7041 25.7791 29.2296 23.9685 31.102 20.7946C32.3474 18.6836 33.1173 17.2221 32.898 14.781C32.8132 13.8373 32.7109 12.9451 32.3367 12.4205C31.9252 11.896 31.4762 11.6337 30.9898 11.6337C30.6156 11.6337 30.017 11.7836 29.1939 12.0833C28.3707 12.3831 27.5476 12.5329 26.7245 12.5329C25.1531 12.5329 23.8061 11.9709 22.6837 10.8469C21.5612 9.72287 21 8.3553 21 6.74419C21 4.94574 21.7109 3.37209 23.1327 2.02326C24.5918 0.674419 26.3503 0 28.4082 0C30.8776 0 33.1037 1.06783 35.0867 3.20349C37.1071 5.33915 38.1173 8.03682 38.1173 11.2965C38.1173 15.2306 37.0043 18.5275 34.301 22.0872C31.3107 26.0248 25 29 23.6939 29Z" fill="#FF3901"/>
</svg>